# xmcd
# Copyright (C) 1995-1998 Ti Kan
#
# Track frame offsets:
#       150
#       65660
#       161770
#
# Disc length: 3332 seconds
#
# Revision: 0
# Processed by: cddbd v1.5.1PL0 Copyright (c) Steve Scherf et al.
# Submitted via: CD-Transfer v1.0
#
DISCID=240d0203
DTITLE=Goldies-Sendung - 
DYEAR=1900
DGENRE=
TTITLE0=Soulfood 21.08.05 Teil 1
TTITLE1=Soulfood 21.08.05 Teil 2
TTITLE2=Soulfood 21.08.05 Teil 3
EXTD=
EXTT0=
EXTT1=
EXTT2=
PLAYORDER=
